<?xml version="1.0" encoding="UTF-8" standalone="no"?>
<!-- Created with Inkscape (http://www.inkscape.org/) -->

<svg
   version="1.1"
   id="svg2"
   width="152.77467"
   height="114.98"
   viewBox="0 0 152.77467 114.98"
   sodipodi:docname="Sangaku2.pdf"
   xmlns:inkscape="http://www.inkscape.org/namespaces/inkscape"
   xmlns:sodipodi="http://sodipodi.sourceforge.net/DTD/sodipodi-0.dtd"
   xmlns="http://www.w3.org/2000/svg"
   xmlns:svg="http://www.w3.org/2000/svg">
  <defs
     id="defs6" />
  <sodipodi:namedview
     id="namedview4"
     pagecolor="#ffffff"
     bordercolor="#666666"
     borderopacity="1.0"
     inkscape:showpageshadow="2"
     inkscape:pageopacity="0.0"
     inkscape:pagecheckerboard="0"
     inkscape:deskcolor="#d1d1d1"
     showgrid="false" />
  <g
     id="g10"
     inkscape:groupmode="layer"
     inkscape:label="Page 1"
     transform="matrix(1.3333333,0,0,-1.3333333,0,114.98)">
    <g
       id="g12"
       transform="translate(57.291,14.771)">
      <g
         id="g14">
        <g
           id="g16">
          <g
             id="g18">
            <path
               d="M 0,-13.21698 V 69.9106"
               style="fill:none;stroke:#000000;stroke-width:1.19553;stroke-linecap:butt;stroke-linejoin:miter;stroke-miterlimit:10;stroke-dasharray:none;stroke-opacity:1"
               id="path20" />
            <g
               id="g22"
               transform="rotate(-90,-6.60849,-6.60849)">
              <g
                 id="g24">
                <path
                   d="M -1.91284,2.55046 C -1.75343,1.59402 0,0.15938 0.4782,0 0,-0.15938 -1.75343,-1.59402 -1.91284,-2.55046"
                   style="fill:none;stroke:#000000;stroke-width:0.9564;stroke-linecap:round;stroke-linejoin:round;stroke-miterlimit:10;stroke-dasharray:none;stroke-opacity:1"
                   id="path26" />
              </g>
            </g>
            <g
               id="g28"
               transform="rotate(90,-34.9553,34.9553)">
              <g
                 id="g30">
                <path
                   d="M -1.91284,2.55046 C -1.75343,1.59402 0,0.15938 0.4782,0 0,-0.15938 -1.75343,-1.59402 -1.91284,-2.55046"
                   style="fill:none;stroke:#000000;stroke-width:0.9564;stroke-linecap:round;stroke-linejoin:round;stroke-miterlimit:10;stroke-dasharray:none;stroke-opacity:1"
                   id="path32" />
              </g>
            </g>
          </g>
          <g
             id="g34">
            <path
               d="M -55.7372,0 H 55.7372"
               style="fill:none;stroke:#000000;stroke-width:1.19553;stroke-linecap:butt;stroke-linejoin:miter;stroke-miterlimit:10;stroke-dasharray:none;stroke-opacity:1"
               id="path36" />
            <g
               id="g38"
               transform="rotate(180,-27.8686,0)">
              <g
                 id="g40">
                <path
                   d="M -1.91284,2.55046 C -1.75343,1.59402 0,0.15938 0.4782,0 0,-0.15938 -1.75343,-1.59402 -1.91284,-2.55046"
                   style="fill:none;stroke:#000000;stroke-width:0.9564;stroke-linecap:round;stroke-linejoin:round;stroke-miterlimit:10;stroke-dasharray:none;stroke-opacity:1"
                   id="path42" />
              </g>
            </g>
            <g
               id="g44"
               transform="translate(55.7372)">
              <g
                 id="g46">
                <path
                   d="M -1.91284,2.55046 C -1.75343,1.59402 0,0.15938 0.4782,0 0,-0.15938 -1.75343,-1.59402 -1.91284,-2.55046"
                   style="fill:none;stroke:#000000;stroke-width:0.9564;stroke-linecap:round;stroke-linejoin:round;stroke-miterlimit:10;stroke-dasharray:none;stroke-opacity:1"
                   id="path48" />
              </g>
            </g>
          </g>
          <g
             id="g50">
            <path
               d="m 28.3468,28.3468 c 0,15.65572 -12.6911,28.34682 -28.3468,28.34682 -15.6557,0 -28.3468,-12.6911 -28.3468,-28.34682 C -28.3468,12.69109 -15.6557,0 0,0 15.6557,0 28.3468,12.69109 28.3468,28.3468 Z"
               style="fill:none;stroke:#0000ff;stroke-width:1.19553;stroke-linecap:butt;stroke-linejoin:miter;stroke-miterlimit:10;stroke-dasharray:none;stroke-opacity:1"
               id="path52" />
          </g>
          <g
             id="g54">
            <path
               d="m -21.26012,7.08669 c 0,3.91391 -3.17277,7.08668 -7.08668,7.08668 -3.91391,0 -7.08669,-3.17277 -7.08669,-7.08668 0,-3.91393 3.17278,-7.08669 7.08669,-7.08669 3.91391,0 7.08668,3.17276 7.08668,7.08669 z"
               style="fill:none;stroke:#ff0000;stroke-width:1.19553;stroke-linecap:butt;stroke-linejoin:miter;stroke-miterlimit:10;stroke-dasharray:none;stroke-opacity:1"
               id="path56" />
          </g>
          <g
             id="g58">
            <path
               d="m 35.43349,7.08669 c 0,3.91391 -3.17278,7.08668 -7.08669,7.08668 -3.91391,0 -7.08668,-3.17277 -7.08668,-7.08668 C 21.26012,3.17276 24.43289,0 28.3468,0 c 3.91391,0 7.08669,3.17276 7.08669,7.08669 z"
               style="fill:none;stroke:#ff0000;stroke-width:1.19553;stroke-linecap:butt;stroke-linejoin:miter;stroke-miterlimit:10;stroke-dasharray:none;stroke-opacity:1"
               id="path60" />
          </g>
        </g>
      </g>
    </g>
  </g>
</svg>
